<?xml version="1.0" encoding="UTF-8" standalone="no"?>
<!-- Created with Inkscape (http://www.inkscape.org/) -->

<svg
   xmlns:dc="http://purl.org/dc/elements/1.1/"
   xmlns:cc="http://creativecommons.org/ns#"
   xmlns:rdf="http://www.w3.org/1999/02/22-rdf-syntax-ns#"
   xmlns:svg="http://www.w3.org/2000/svg"
   xmlns="http://www.w3.org/2000/svg"
   xmlns:xlink="http://www.w3.org/1999/xlink"
   xmlns:sodipodi="http://sodipodi.sourceforge.net/DTD/sodipodi-0.dtd"
   xmlns:inkscape="http://www.inkscape.org/namespaces/inkscape"
   version="1.1"
   id="svg3713"
   width="300"
   height="100"
   viewBox="0 0 1437.3333 312"
   sodipodi:docname="thumbnail_logoconterstats.svg"
   inkscape:version="0.92.3 (2405546, 2018-03-11)">
  <metadata
     id="metadata3719">
    <rdf:RDF>
      <cc:Work
         rdf:about="">
        <dc:format>image/svg+xml</dc:format>
        <dc:type
           rdf:resource="http://purl.org/dc/dcmitype/StillImage" />
        <dc:title></dc:title>
      </cc:Work>
    </rdf:RDF>
  </metadata>
  <defs
     id="defs3717" />
  <sodipodi:namedview
     pagecolor="#ffffff"
     bordercolor="#666666"
     borderopacity="1"
     objecttolerance="10"
     gridtolerance="10"
     guidetolerance="10"
     inkscape:pageopacity="0"
     inkscape:pageshadow="2"
     inkscape:window-width="756"
     inkscape:window-height="689"
     id="namedview3715"
     showgrid="false"
     inkscape:zoom="0.84253252"
     inkscape:cx="502.05778"
     inkscape:cy="156"
     inkscape:window-x="594"
     inkscape:window-y="0"
     inkscape:window-maximized="0"
     inkscape:current-layer="svg3713" />
  <image
     sodipodi:absref="C:\Users\clement\Desktop\Manga\thumbnail_logoconterstats.png"
     xlink:href="thumbnail_logoconterstats.png"
     y="0"
     x="0"
     id="image3721"
     preserveAspectRatio="none"
     height="312"
     width="1437.3333" />
  <path
     style="fill:#000000;stroke-width:1.33333337"
     d="m 793.66665,284.45029 c -2.41692,-0.97525 -2.06503,-10.43752 0.81458,-21.90368 1.36468,-5.43397 2.20086,-12.11436 1.85816,-14.84532 -0.3961,-3.15658 0.37499,-7.52793 2.11675,-12 1.50691,-3.86904 3.04599,-8.53462 3.42019,-10.36796 0.3742,-1.83333 3.21694,-7.53333 6.31722,-12.66666 4.84919,-8.02914 5.69219,-10.54438 6.0328,-18 0.21778,-4.76667 1.02174,-11.68787 1.78658,-15.38044 0.93474,-4.51295 0.96457,-9.7221 0.0909,-15.89082 -1.12431,-7.9391 -0.98427,-9.64142 1.03816,-12.61956 1.82512,-2.68761 2.12409,-4.75825 1.36335,-9.44252 -0.53594,-3.3 -1.01891,-8.86933 -1.07327,-12.3763 -0.0844,-5.44136 0.34105,-6.53913 2.90117,-7.48682 2.79478,-1.03455 2.69215,-1.17818 -1.50014,-2.09961 l -4.50016,-0.98909 0.85406,-6.85742 c 0.46974,-3.77158 1.0989,-8.05742 1.39814,-9.52409 0.29924,-1.46667 0.58998,-4.539981 0.64609,-6.829589 0.0932,-3.803144 0.56377,-4.236762 5.44496,-5.017294 l 5.34295,-0.854372 -0.83424,-7.098118 c -0.926,-7.878852 1.85808,-19.834628 6.30932,-27.094324 3.8968,-6.355428 11.27406,-10.21287 17.8168,-9.316088 l 5.35556,0.734061 v -9.831031 c 0,-7.878314 0.55098,-10.569014 2.77394,-13.546438 6.8775,-9.211651 17.10203,-10.820223 28.22606,-4.440658 3.85,2.207952 7.01054,4.152323 7.02342,4.320822 0.0133,0.1685 0.38882,4.34235 0.83538,9.275224 0.79401,8.770952 0.73465,8.998241 -2.6901,10.300332 -4.84862,1.843458 -5.04572,8.06414 -0.25546,8.06414 5.14208,0 10.0868,-2.394752 10.0868,-4.885082 0,-1.949813 0.3982,-1.856998 2.71861,0.633667 2.63291,2.826105 3.61701,2.918081 31.22221,2.918081 21.55533,0 28.66756,0.406282 29.17613,1.666667 0.36988,0.916667 0.71988,-0.883333 0.77778,-4 0.12624,-6.795753 2.77193,-7.710272 2.77193,-0.958153 0,2.955357 0.74468,4.994272 2,5.475985 1.1,0.422109 2,1.680571 2,2.796581 0,1.744336 1.87125,1.896444 13.33333,1.083823 11.66235,-0.82682 13.33334,-0.681247 13.33334,1.161572 0,1.812212 -2.4241,2.106859 -17.33334,2.106859 -10.66666,0 -17.33333,0.51282 -17.33333,1.333333 0,0.787923 -4.80171,1.333333 -11.73844,1.333333 -11.58999,0 -11.7938,0.05711 -16.11485,4.515308 -4.2108,4.344435 -4.34103,4.79855 -3.44127,12 0.73997,5.922498 0.55161,7.484692 -0.90242,7.484692 -1.07186,0 -2.66378,2.891642 -3.8203,6.93938 -1.59525,5.583254 -3.07436,7.706066 -7.56866,10.862547 -5.44547,3.8245 -5.74727,3.87852 -12,2.14778 -3.52774,-0.97647 -9.20119,-3.16461 -12.6077,-4.86255 -3.40649,-1.697935 -6.55649,-3.087157 -7,-3.087157 -1.954,0 -0.54722,4.962577 2.03308,7.171897 2.66636,2.283 2.78222,3.21089 1.90059,15.22146 -1.13229,15.42538 -3.32173,20.68008 -8.11529,19.47698 -3.02707,-0.75975 -3.2914,-0.45368 -3.2914,3.81094 0,3.35695 1.41192,6.43351 5.1145,11.14455 5.88435,7.48703 9.56566,14.12183 13.59791,24.50751 1.56595,4.03333 3.39771,8.23333 4.07056,9.33333 3.98424,6.51344 4.15715,8.84011 2.57627,34.66667 -0.87532,14.3 -1.64592,27.90928 -1.71244,30.24284 -0.1789,6.27589 5.62533,14.11922 13.24352,17.89617 7.38154,3.65963 9.37742,8.27679 4.17964,9.66897 -5.00172,1.33967 -13.27776,0.94923 -20.46812,-0.96562 -3.70232,-0.98596 -8.50232,-1.56166 -10.66667,-1.2793 -7.137,0.93106 -7.96136,-0.76212 -5.37807,-11.04622 2.40796,-9.58616 2.10912,-16.64203 -1.23605,-29.18351 -3.41355,-12.79781 -3.72776,-19.32956 -1.19956,-24.93609 3.24263,-7.19087 1.50321,-12.23451 -4.41803,-12.81051 -3.65242,-0.35531 -5.14533,-1.79695 -10.64258,-10.27715 -3.51682,-5.42513 -7.5379,-10.25932 -8.93572,-10.74265 -1.39782,-0.48332 -3.94782,-2.39623 -5.66667,-4.25088 -2.21279,-2.38764 -3.12516,-2.77904 -3.12516,-1.34068 0,1.11729 -0.95159,2.82119 -2.11463,3.78643 -2.66349,2.21049 -6.41778,10.5805 -8.62913,19.2382 -1.00107,3.9193 -3.79101,9.19446 -6.77003,12.80056 -5.63298,6.81873 -8.12329,12.18977 -7.00412,15.10632 0.65462,1.70588 -0.59124,5.1927 -8.25128,23.09312 C 818.21091,250.05 816.77481,252 816.03945,252 c -1.58298,0 -4.55535,6.77013 -5.85388,13.33333 -0.51832,2.61972 -0.20274,7.4821 0.71948,11.08535 1.38888,5.42651 1.34284,6.60841 -0.2978,7.64624 -2.0236,1.28008 -14.04552,1.55356 -16.9406,0.38537 z M 916.81058,76.333333 c 0.9742,-1.283333 1.79033,-3.383333 1.81367,-4.666666 0.0233,-1.283334 0.6424,-2.333334 1.37573,-2.333334 0.73333,0 1.33333,-0.9 1.33333,-2 0,-2.955798 -3.68397,-2.429516 -4.66666,0.666667 -0.46551,1.466667 -1.67052,2.666667 -2.67783,2.666667 -2.84085,0 -3.58267,2.285728 -1.71328,5.279097 2.06641,3.308859 2.30217,3.329007 4.53504,0.387569 z m -193.60357,103.333337 -19.51015,-24.33334 17.78239,-0.66666 c 17.30692,-0.64884 17.82931,-0.7558 19.53712,-4 1.98144,-3.76398 1.38372,-12.44138 -1.05979,-15.38563 -1.30072,-1.56727 -6.01194,-1.94771 -24.11985,-1.94771 h -22.50341 v 34 34 h -10.66667 -10.66667 v -44.13664 -44.13664 l 37.66667,0.51598 c 35.83033,0.49082 37.94159,0.66062 43.30585,3.48305 8.64223,4.54714 10.36082,8.91528 10.36082,26.33405 0,17.02562 -1.14342,19.76455 -10.8104,25.89518 l -5.97271,3.78777 12.72488,14.71964 c 6.99869,8.09579 12.72489,15.05367 12.72489,15.46195 0,0.40828 -6.58864,0.74233 -14.64141,0.74233 h -14.64141 z m 431.45639,22 c 0,-1.33206 7.385,-25.1337 11.6938,-37.66667 5.3283,-15.49803 18.8805,-47.11365 20.688,-48.26215 0.8918,-0.56669 5.9503,-1.03954 11.2412,-1.05077 8.3627,-0.0177 9.812,0.33879 11.0909,2.72848 0.8092,1.5119 7.6922,21.31189 15.2957,44 l 13.8245,41.25111 h -10.0227 -10.0227 l -2.095,-5.33334 -2.095,-5.33333 h -14.552 c -8.0037,0 -15.6496,0.58733 -16.9909,1.30519 -1.3413,0.71785 -3.0706,3.11785 -3.843,5.33333 l -1.4042,4.02815 h -11.4027 c -6.2714,0 -11.4041,-0.45 -11.4059,-1 z m 53.6428,-32 c 0.276,-1.28334 -1.3807,-8.03334 -3.6817,-15 -3.2002,-9.6895 -4.7838,-12.74855 -6.7374,-13.01506 -2.1454,-0.29265 -3.2481,1.83972 -6.8953,13.33334 -2.3879,7.52494 -4.3379,14.43172 -4.3334,15.34838 0.01,1.19247 3.0153,1.66667 10.5771,1.66667 8.9856,0 10.6441,-0.34956 11.0707,-2.33333 z M 28.593769,200.05479 c -1.50676,-0.61023 -4.65676,-3.29307 -7,-5.96188 l -4.260436,-4.85236 v -30.79623 c 0,-34.37476 0.434337,-36.26995 9.574572,-41.77765 C 31.013071,114.19298 33.697365,114 63.999999,114 c 30.551248,0 32.968575,0.17736 37.328801,2.73875 5.16143,3.03207 10.6712,10.31391 10.6712,14.10332 0,2.30487 -2.08135,2.46843 -35.666668,2.80282 L 40.666666,134 l -0.364099,23.66667 -0.3641,23.66666 H 75.969233 112 l -0.005,3 c -0.007,4.38363 -4.66019,11.29852 -9.64949,14.34054 -4.040535,2.46354 -6.684996,2.64392 -37.678854,2.56997 -18.333333,-0.0437 -34.566137,-0.57881 -36.072897,-1.18905 z m 105.060711,-1.38092 c -9.07985,-5.53606 -9.64394,-7.9217 -9.6495,-40.81003 -0.005,-28.3702 0.10692,-29.63391 2.99502,-33.8774 6.72014,-9.87394 6.97804,-9.93759 42.23385,-10.42347 19.55656,-0.26953 33.71979,0.10389 36.95203,0.97423 2.9384,0.79123 7.27081,3.50427 9.86093,6.17511 l 4.61985,4.76383 0.36663,30.92859 c 0.34421,29.03858 0.20237,31.19415 -2.32115,35.27412 -1.47828,2.39004 -4.64325,5.53779 -7.03329,6.99502 -4.04196,2.46441 -6.76719,2.64949 -39.01219,2.64949 -32.245,0 -34.97022,-0.18508 -39.01218,-2.64949 z M 200,158 V 133.33333 H 172.66666 145.33333 V 158 182.66667 H 172.66666 200 Z m 48.32114,40.67387 c -2.39004,-1.45723 -5.53779,-4.60498 -6.99501,-6.99502 -2.4755,-4.06012 -2.64983,-6.77722 -2.65448,-41.37092 l -0.005,-37.0254 3.66667,0.86334 c 6.71788,1.58178 12.58692,6.13126 15.12816,11.72685 2.13876,4.70935 2.48397,8.99179 2.50922,31.12728 L 260,182.66667 h 27.33334 27.33333 V 148 113.33333 H 325.33334 336 l -0.005,37 c -0.004,34.56835 -0.17911,37.28559 -2.65448,41.34552 -1.45723,2.39004 -4.60497,5.53779 -6.99501,6.99502 -4.04196,2.46441 -6.76719,2.64949 -39.01219,2.64949 -32.245,0 -34.97023,-0.18508 -39.01219,-2.64949 z m 106.34552,-41.34054 v -44 h 3.71987 c 5.42263,0 18.11623,3.5341 22.69511,6.31868 2.17719,1.32403 15.49056,13.19398 29.58527,26.37766 14.09471,13.18368 26.12071,24.15701 26.72444,24.38517 0.60373,0.22816 1.28765,-9.79013 1.51984,-22.26289 l 0.42213,-22.67775 4.60752,-4.75014 c 3.841,-3.95987 10.75826,-7.35131 15.05915,-7.38329 0.55,-0.004 1,19.79256 1,43.99256 v 44 l -11,-0.0289 -11,-0.0289 -30.66667,-29.13528 -30.66666,-29.1353 -0.35884,29.16424 -0.35884,29.16424 h -10.64116 -10.64116 v -44 z m 150.66666,10 v -34 h -19.33333 c -19.16197,0 -19.33329,-0.0266 -19.32835,-3 0.007,-4.08516 4.41404,-11.00568 8.86962,-13.92755 3.3096,-2.17038 7.88208,-2.44509 46.73031,-2.80753 l 43.06175,-0.40174 v 3.46796 c 0,4.85199 -3.19359,10.49383 -7.59852,13.42363 -2.85912,1.90166 -6.93921,2.60879 -17.40148,3.01589 l -13.66667,0.5318 v 33.84877 33.84877 h -10.66666 -10.66667 z m 68,-10 v -44 h 42.66667 42.66666 v 3.13616 c 0,4.57408 -5.35119,11.84449 -10.69324,14.52844 -3.91016,1.96453 -8.46798,2.33158 -28.97342,2.33333 l -24.33334,0.002 V 140.66667 148 h 27.47788 27.47788 l -0.90387,3.66667 c -1.53409,6.22333 -5.17807,11.25432 -10.03109,13.8492 -3.93,2.10137 -7.6794,2.48413 -24.33333,2.48413 h -19.68747 v 7.33333 7.33334 h 32 c 31.36955,0 32,0.0539 32,2.73288 0,3.95797 -3.40532,9.93913 -7.48651,13.14938 -3.39732,2.67234 -5.03507,2.7844 -40.6933,2.7844 h -37.15352 z m 404.66666,42.72068 C 974.0602,198.41367 968.56579,191.94185 966.91742,187 l -1.44539,-4.33333 h 38.66387 38.6638 L 1042.3998,175 1042,167.33333 1009.6859,166.66667 977.37192,166 l -4.77668,-4.7796 c -5.65522,-5.65868 -7.18197,-11.24053 -6.56145,-23.98909 0.52103,-10.70456 3.37017,-16.44466 10.20743,-20.56464 C 980.35279,114.18912 983.03067,114 1014,114 c 30.9353,0 33.659,0.19184 37.8606,2.66667 5.2815,3.11088 8.9961,7.83425 10.2237,13 l 0.8714,3.66666 h -37.4778 -37.47792 V 140.66667 148 h 30.05312 c 27.2637,0 30.5307,0.24367 35.199,2.62521 8.4268,4.29906 10.7487,9.52932 10.7429,24.19883 -0.01,14.19116 -2.0352,19.20731 -9.6495,23.84983 -4.0519,2.47045 -6.6882,2.64412 -39.0122,2.56997 -19.06666,-0.0437 -35.86666,-0.57916 -37.33332,-1.18983 z M 1105.3333,171.5 c 0,-16.40833 -0.375,-31.70833 -0.8333,-34 l -0.8334,-4.16667 h -17.8587 -17.8587 l 0.8732,-3.66666 c 1.391,-5.84056 4.5489,-10.44274 9.025,-13.15262 3.782,-2.28968 7.7521,-2.55023 44.4859,-2.91946 l 40.3333,-0.40542 v 3.47163 c 0,4.86062 -3.1959,10.50175 -7.5985,13.41218 -2.7463,1.81553 -6.999,2.6158 -16.0681,3.02371 l -12.3334,0.55472 v 33.84096 33.84096 H 1116 1105.3333 Z m 160,0 c 0,-16.40833 -0.375,-31.70833 -0.8333,-34 l -0.8334,-4.16667 h -17.8587 -17.8587 l 0.8732,-3.66666 c 1.391,-5.84056 4.5489,-10.44274 9.025,-13.15262 3.782,-2.28968 7.7521,-2.55023 44.4859,-2.91946 l 40.3333,-0.40542 v 3.47163 c 0,4.86062 -3.1959,10.50175 -7.5985,13.41218 -2.7463,1.81553 -6.999,2.6158 -16.0681,3.02371 l -12.3334,0.55472 v 33.84096 33.84096 H 1276 1265.3333 Z m 75.3333,28.55401 c -3.9397,-1.64034 -9.4342,-8.11216 -11.0825,-13.05401 l -1.4454,-4.33333 h 38.6638 38.6639 L 1405.0665,175 l -0.3999,-7.66667 -32.314,-0.66666 -32.314,-0.66667 -4.7766,-4.7796 c -5.6553,-5.65868 -7.1821,-11.24053 -6.5616,-23.98909 0.5211,-10.70456 3.3702,-16.44466 10.2074,-20.56464 4.1116,-2.47755 6.7895,-2.66667 37.7588,-2.66667 30.9354,0 33.6591,0.19184 37.8607,2.66667 5.2815,3.11088 8.9961,7.83425 10.2237,13 l 0.8714,3.66666 h -37.4779 -37.4779 V 140.66667 148 h 30.0531 c 27.2637,0 30.5308,0.24367 35.1991,2.62521 8.4268,4.29906 10.7486,9.52932 10.7429,24.19883 0,14.19116 -2.0352,19.20731 -9.6496,23.84983 -4.0519,2.47045 -6.6881,2.64412 -39.0121,2.56997 -19.0667,-0.0437 -35.8667,-0.57916 -37.3334,-1.18983 z"
     id="path3731"
     inkscape:connector-curvature="0" />
</svg>
